<svg id="category" xmlns="http://www.w3.org/2000/svg" width="17.947" height="18" viewBox="0 0 17.947 18">
  <defs>
    <style>
      .cls-1 {
        fill: #ccc;
      }
    </style>
  </defs>
  <path id="Path_6380" data-name="Path 6380" class="cls-1" d="M3.632,8.6H2.843A2.846,2.846,0,0,1,0,5.757V2.843A2.846,2.846,0,0,1,2.843,0h2.38A2.846,2.846,0,0,1,8.065,2.843v.629a.641.641,0,1,1-1.282,0V2.843A1.563,1.563,0,0,0,5.223,1.282H2.843A1.563,1.563,0,0,0,1.282,2.843V5.757A1.563,1.563,0,0,0,2.843,7.318h.789a.641.641,0,1,1,0,1.282Z"/>
  <path id="Path_6381" data-name="Path 6381" class="cls-1" d="M5.757,18H2.843A2.846,2.846,0,0,1,0,15.157v-2.38A2.846,2.846,0,0,1,2.843,9.935h.629a.641.641,0,0,1,0,1.282H2.843a1.563,1.563,0,0,0-1.561,1.561v2.38a1.563,1.563,0,0,0,1.561,1.561H5.757a1.563,1.563,0,0,0,1.561-1.561v-.789a.641.641,0,0,1,1.282,0v.789A2.846,2.846,0,0,1,5.757,18Z"/>
  <path id="Path_6382" data-name="Path 6382" class="cls-1" d="M15.1,18h-2.38a2.846,2.846,0,0,1-2.843-2.843v-.629a.641.641,0,0,1,1.282,0v.629a1.563,1.563,0,0,0,1.561,1.561H15.1a1.563,1.563,0,0,0,1.561-1.561V12.243A1.563,1.563,0,0,0,15.1,10.682h-.789a.641.641,0,1,1,0-1.282H15.1a2.846,2.846,0,0,1,2.843,2.843v2.914A2.846,2.846,0,0,1,15.1,18Z"/>
  <path id="Path_6383" data-name="Path 6383" class="cls-1" d="M15.1,8.065h-.629a.641.641,0,0,1,0-1.282H15.1a1.563,1.563,0,0,0,1.561-1.561V2.843A1.563,1.563,0,0,0,15.1,1.282H12.19a1.563,1.563,0,0,0-1.561,1.561v.789a.641.641,0,1,1-1.282,0V2.843A2.846,2.846,0,0,1,12.19,0H15.1a2.846,2.846,0,0,1,2.843,2.843v2.38A2.846,2.846,0,0,1,15.1,8.065Z"/>
  <path id="Path_6384" data-name="Path 6384" class="cls-1" d="M9.24,11.911A.641.641,0,0,1,8.6,11.27V7A.641.641,0,0,1,9.881,7V11.27A.641.641,0,0,1,9.24,11.911Z"/>
</svg>
